<svg width="40" height="40" viewBox="0 0 40 40" fill="none" xmlns="http://www.w3.org/2000/svg">
<rect width="40" height="40" rx="2" fill="#3A53AD"/>
<g clip-path="url(#clip0_1_1322)">
<path d="M26.1719 13.7664C25.8281 13.8904 22.8437 15.1764 19.5469 16.6329C16.25 18.1049 13.4531 19.2671 13.3437 19.2206C13.2344 19.1741 12.6562 18.7867 12.0625 18.3684C10.9375 17.5471 10.4844 17.4232 10.1719 17.7951C10.0312 17.9655 10.1562 18.3839 10.7812 19.7784C11.2187 20.7391 11.7344 21.6533 11.9219 21.8237C12.6562 22.4435 15.2969 21.9167 18.5625 20.4911C19.3594 20.1503 20.0469 19.9023 20.0781 19.9333C20.125 19.9798 19.8906 21.3744 19.5781 23.0478C19.2656 24.7212 19.0469 26.1467 19.1094 26.1932C19.2969 26.3792 20.1562 25.9143 20.5 25.434C20.6875 25.1706 21.5625 23.4197 22.4375 21.5448L24.0156 18.1204L25.0156 17.6246C27.6406 16.2921 29.4219 15.3004 29.7187 14.9905L30.0312 14.6496L29.6094 14.2622C28.8594 13.565 27.4375 13.3635 26.1719 13.7664Z" fill="white"/>
<path d="M14.4062 14.5566C14.125 14.6961 13.9219 14.851 13.9687 14.9285C14.0156 15.006 14.7344 15.4708 15.5469 15.9512L17.0312 16.8499L18.4687 16.2146L19.8906 15.5948L18.0312 15.0215C15.8594 14.3397 15.1094 14.2467 14.4062 14.5566Z" fill="white"/>
<path d="M10.3437 27.6984C9.92186 27.9773 9.90624 28.3957 10.2812 28.7366C10.5469 28.969 11.4531 29 20.0312 29C28.9844 29 29.5 28.9845 29.7344 28.7211C30.0937 28.3337 30.0625 27.9773 29.6562 27.6984C29.3437 27.4815 28.1719 27.4505 20 27.4505C11.8281 27.4505 10.6562 27.4815 10.3437 27.6984Z" fill="white"/>
</g>
<defs>
<clipPath id="clip0_1_1322">
<rect width="20" height="17" fill="white" transform="translate(10 12)"/>
</clipPath>
</defs>
</svg>
