<svg width="19" height="19" viewBox="0 0 19 19" fill="none" xmlns="http://www.w3.org/2000/svg">
<path d="M15.7533 13.3663C14.9946 13.3663 14.3158 13.6335 13.7966 14.052L6.67859 10.3561C6.7285 10.1513 6.76844 9.94646 6.76844 9.73272C6.76844 9.51898 6.7285 9.31415 6.67859 9.10931L13.7168 5.44902C14.2559 5.89431 14.9647 6.17039 15.7533 6.17039C17.4106 6.17039 18.7483 4.97701 18.7483 3.49865C18.7483 2.02028 17.4106 0.826904 15.7533 0.826904C14.0961 0.826904 12.7584 2.02028 12.7584 3.49865C12.7584 3.71239 12.7983 3.91722 12.8482 4.12206L5.81005 7.78235C5.27095 7.33706 4.56214 7.06097 3.77347 7.06097C2.11626 7.06097 0.778503 8.25435 0.778503 9.73272C0.778503 11.2111 2.11626 12.4045 3.77347 12.4045C4.56214 12.4045 5.27095 12.1284 5.81005 11.6831L12.9181 15.3879C12.8682 15.5749 12.8382 15.7709 12.8382 15.9668C12.8382 17.4006 14.146 18.5673 15.7533 18.5673C17.3606 18.5673 18.6684 17.4006 18.6684 15.9668C18.6684 14.533 17.3606 13.3663 15.7533 13.3663Z" fill="#8B8B8B"/>
</svg>
