<svg width="24" height="25" viewBox="0 0 24 25" fill="none" xmlns="http://www.w3.org/2000/svg">
<path d="M21.5452 8.4387C21.2639 8.15749 20.8824 7.99952 20.4847 7.99952C20.0869 7.99952 19.7055 8.15749 19.4242 8.4387L11.9992 15.8637L4.5742 8.4387C4.29129 8.16546 3.91239 8.01427 3.51909 8.01769C3.1258 8.0211 2.74958 8.17886 2.47147 8.45697C2.19335 8.73508 2.0356 9.1113 2.03218 9.50459C2.02877 9.89789 2.17996 10.2768 2.4532 10.5597L10.9387 19.0452C11.22 19.3264 11.6014 19.4844 11.9992 19.4844C12.3969 19.4844 12.7784 19.3264 13.0597 19.0452L21.5452 10.5597C21.8264 10.2784 21.9844 9.89694 21.9844 9.4992C21.9844 9.10145 21.8264 8.71999 21.5452 8.4387Z" fill="#8F8F8F"/>
</svg>
